<svg width="800" height="800" viewBox="0 0 800 800" fill="none" xmlns="http://www.w3.org/2000/svg">
<path d="M690.322 121.816C690.322 121.816 755.077 96.5663 749.68 157.888C747.882 183.138 731.693 271.513 719.102 367.103L675.932 650.265C675.932 650.265 672.335 691.746 639.957 698.961C607.578 706.175 559.013 673.711 550.018 666.496C542.823 661.086 415.113 579.925 370.143 540.246C357.552 529.425 343.162 507.781 371.942 482.531L560.812 302.175C582.397 280.532 603.982 230.031 514.043 291.353L262.218 462.693C262.218 462.693 233.438 480.728 179.477 464.497L62.557 428.425C62.557 428.425 19.3868 401.371 93.1358 374.316C273.012 289.548 494.258 202.977 690.322 121.816Z" fill="white"/>
</svg>
