<svg width="10" height="7" viewBox="0 0 10 7" fill="none" xmlns="http://www.w3.org/2000/svg">
<path d="M4.85179e-05 1.49554C-0.000311482 1.62361 0.0232387 1.75016 0.0689687 1.86588C0.114699 1.98159 0.181448 2.08354 0.264308 2.16423L4.54962 6.305C4.67742 6.4311 4.83772 6.5 5.00315 6.5C5.16858 6.5 5.32888 6.4311 5.45668 6.305L9.742 2.01849C9.8878 1.87297 9.9796 1.66387 9.997 1.43718C10.0144 1.21048 9.9561 0.984767 9.8348 0.809697C9.7136 0.634627 9.5394 0.524527 9.3505 0.503627C9.1617 0.482727 8.9736 0.552737 8.8278 0.698247L4.99958 4.5304L1.17137 0.826847C1.06653 0.722007 0.938869 0.655417 0.803489 0.634947C0.668109 0.614477 0.530679 0.640977 0.407459 0.711327C0.284239 0.781667 0.180378 0.892917 0.108178 1.03189C0.0359785 1.17087 -0.00154148 1.33177 4.85179e-05 1.49554Z" fill="#1E1E1E"/>
</svg>
