<svg width="24" height="22" viewBox="0 0 24 22" fill="none" xmlns="http://www.w3.org/2000/svg">
<path d="M0 1.33325C0 0.780967 0.447715 0.333252 1 0.333252H23C23.5523 0.333252 24 0.780967 24 1.33325V1.99992C24 2.55221 23.5523 2.99992 23 2.99992H1C0.447716 2.99992 0 2.55221 0 1.99992V1.33325ZM0 10.6666C0 10.1143 0.447715 9.6666 1 9.6666H15C15.5523 9.6666 16 10.1143 16 10.6666V11.3333C16 11.8856 15.5523 12.3333 15 12.3333H1C0.447715 12.3333 0 11.8856 0 11.3333V10.6666ZM0 19.9999C0 19.4476 0.447715 18.9999 1 18.9999H23C23.5523 18.9999 24 19.4476 24 19.9999V20.6666C24 21.2189 23.5523 21.6666 23 21.6666H1C0.447716 21.6666 0 21.2189 0 20.6666V19.9999Z" fill="#1E1E1E"/>
</svg>
