<svg width="24" height="24" viewBox="0 0 24 24" fill="none" xmlns="http://www.w3.org/2000/svg">
<path d="M17.46 10L14 6.54004L18.1399 2.40002C17.4569 2.13731 16.7318 2.00172 16 2C14.4087 2 12.8825 2.63223 11.7573 3.75745C10.6321 4.88266 10 6.4087 10 8C9.99861 8.58978 10.086 9.17638 10.2598 9.73999L2.82983 17.17C2.56618 17.4321 2.35689 17.7437 2.21411 18.0869C2.07134 18.4302 1.99805 18.7983 1.99805 19.17C1.99805 19.5418 2.07134 19.9098 2.21411 20.2531C2.35689 20.5963 2.56618 20.908 2.82983 21.17C3.09191 21.4337 3.40359 21.6429 3.74683 21.7856C4.09006 21.9284 4.45809 22.002 4.82983 22.002C5.20158 22.002 5.5696 21.9284 5.91284 21.7856C6.25608 21.6429 6.56776 21.4337 6.82983 21.17L14.2598 13.74C14.8235 13.913 15.4103 14.0006 16 14C17.5913 14 19.1172 13.3679 20.2424 12.2427C21.3676 11.1175 22 9.5913 22 8C22.0015 7.26794 21.8657 6.54207 21.5999 5.85999L17.46 10Z" stroke="#E58411" stroke-width="2" stroke-linejoin="round"/>
<path d="M11.5 16.5L16.1699 21.17C16.432 21.4337 16.7437 21.6429 17.0869 21.7856C17.4302 21.9284 17.7982 22.002 18.1699 22.002C18.5417 22.002 18.9097 21.9284 19.2529 21.7856C19.5962 21.6429 19.9078 21.4337 20.1699 21.17C20.4336 20.908 20.6429 20.5963 20.7856 20.2531C20.9284 19.9098 21.0017 19.5418 21.0017 19.17C21.0017 18.7983 20.9284 18.4302 20.7856 18.0869C20.6429 17.7437 20.4336 17.4321 20.1699 17.17L16.9299 13.9301" stroke="#E58411" stroke-width="2" stroke-linejoin="round"/>
<path d="M2.99988 4L9.49988 10.5" stroke="#E58411" stroke-width="2" stroke-linejoin="round"/>
<path d="M4.11987 5.12C4.26016 4.98141 4.37149 4.81636 4.44751 4.6344C4.52353 4.45244 4.56274 4.25726 4.56274 4.06006C4.56274 3.86286 4.52353 3.66755 4.44751 3.4856C4.37149 3.30364 4.26016 3.13859 4.11987 3L3.11987 2L1 4.12L2 5.12C2.13859 5.26029 2.30364 5.37173 2.4856 5.44775C2.66755 5.52377 2.86261 5.56287 3.05981 5.56287C3.25701 5.56287 3.45232 5.52377 3.63428 5.44775C3.81624 5.37173 3.98129 5.26029 4.11987 5.12Z" fill="#E58411"/>
</svg>
