<svg width="24" height="24" viewBox="0 0 24 24" fill="none" xmlns="http://www.w3.org/2000/svg">
<path d="M17.4619 10L14.002 6.54004L18.1418 2.40002C17.4589 2.13731 16.7337 2.00172 16.002 2C14.4107 2 12.8845 2.63223 11.7593 3.75745C10.6341 4.88266 10.002 6.4087 10.002 8C10.0006 8.58978 10.088 9.17638 10.2617 9.73999L2.83179 17.17C2.56814 17.4321 2.35884 17.7437 2.21606 18.0869C2.07329 18.4302 2 18.7983 2 19.17C2 19.5418 2.07329 19.9098 2.21606 20.2531C2.35884 20.5963 2.56814 20.908 2.83179 21.17C3.09386 21.4337 3.40554 21.6429 3.74878 21.7856C4.09202 21.9284 4.46004 22.002 4.83179 22.002C5.20354 22.002 5.57156 21.9284 5.91479 21.7856C6.25803 21.6429 6.56971 21.4337 6.83179 21.17L14.2617 13.74C14.8255 13.913 15.4122 14.0006 16.002 14C17.5933 14 19.1192 13.3679 20.2444 12.2427C21.3696 11.1175 22.002 9.5913 22.002 8C22.0035 7.26794 21.8676 6.54207 21.6018 5.85999L17.4619 10Z" stroke="#E58411" stroke-width="2" stroke-linejoin="round"/>
</svg>
