<svg width="24" height="24" viewBox="0 0 24 24" fill="none" xmlns="http://www.w3.org/2000/svg">
<path d="M3 2H21" stroke="#E58411" stroke-width="2" stroke-miterlimit="10"/>
<path d="M3 22H21" stroke="#E58411" stroke-width="2" stroke-miterlimit="10"/>
<path d="M18.0001 3V6C18.0001 7.5913 17.3678 9.1174 16.2426 10.2426C15.1173 11.3678 13.5914 12 12.0001 12C10.4088 12 8.88266 11.3678 7.75745 10.2426C6.63223 9.1174 6.00012 7.5913 6.00012 6V3" stroke="#E58411" stroke-width="2" stroke-miterlimit="10"/>
<path d="M6.00012 21V18C6.00012 16.4087 6.63223 14.8825 7.75745 13.7573C8.88266 12.6321 10.4088 12 12.0001 12C13.5914 12 15.1173 12.6321 16.2426 13.7573C17.3678 14.8825 18.0001 16.4087 18.0001 18V21" stroke="#E58411" stroke-width="2" stroke-miterlimit="10"/>
</svg>
