<svg width="24" height="24" viewBox="0 0 24 24" fill="none" xmlns="http://www.w3.org/2000/svg">
<path d="M2 13L3.61987 5.52002C3.72707 5.08641 3.97629 4.70114 4.32788 4.42566C4.67948 4.15018 5.11315 4.00035 5.55981 4H18.4399C18.8866 4.00035 19.3203 4.15018 19.6719 4.42566C20.0235 4.70114 20.2727 5.08641 20.3799 5.52002L22 13V19C22 19.5304 21.7891 20.0392 21.4141 20.4142C21.039 20.7893 20.5304 21 20 21H4C3.46957 21 2.96077 20.7893 2.58569 20.4142C2.21062 20.0392 2 19.5304 2 19V13Z" stroke="#E58411" stroke-width="2" stroke-linejoin="round"/>
<path d="M6.99988 8H16.9999" stroke="#E58411" stroke-width="2" stroke-linejoin="round"/>
<path d="M9.99988 12H13.9999" stroke="#E58411" stroke-width="2" stroke-linejoin="round"/>
<path d="M2 13H5.75977C6.13185 13.0002 6.49652 13.1042 6.81274 13.3003C7.12896 13.4964 7.38423 13.7768 7.5498 14.11L8.44995 15.9C8.61692 16.2314 8.8726 16.5097 9.18872 16.704C9.50484 16.8982 9.86896 17.0007 10.24 17H13.7698C14.1391 16.9989 14.501 16.8955 14.8152 16.7014C15.1294 16.5072 15.3836 16.2299 15.5498 15.9L16.45 14.11C16.6155 13.7768 16.8708 13.4964 17.187 13.3003C17.5032 13.1042 17.8679 13.0002 18.24 13H22" stroke="#E58411" stroke-width="2" stroke-miterlimit="10"/>
</svg>
