<svg width="24" height="24" viewBox="0 0 24 24" fill="none" xmlns="http://www.w3.org/2000/svg">
<path d="M13.2485 2.51855L14.6187 3.8786C14.9548 4.2095 15.4067 4.39604 15.8784 4.39856H17.7986C18.2716 4.39855 18.7254 4.58578 19.0608 4.91931C19.3962 5.25284 19.586 5.70559 19.5886 6.17859V8.10858C19.5937 8.57683 19.7801 9.02487 20.1086 9.35858L21.4685 10.7286C21.6354 10.8932 21.7679 11.0894 21.8584 11.3057C21.9488 11.522 21.9954 11.7541 21.9954 11.9886C21.9954 12.223 21.9488 12.4551 21.8584 12.6714C21.7679 12.8877 21.6354 13.0839 21.4685 13.2486L20.1086 14.6186C19.7804 14.9565 19.5943 15.4075 19.5886 15.8786V17.7986C19.5886 18.2733 19.3999 18.7286 19.0642 19.0643C18.7285 19.4 18.2733 19.5886 17.7986 19.5886H15.8784C15.4067 19.5911 14.9548 19.7777 14.6187 20.1086L13.2485 21.4686C13.0839 21.6355 12.8877 21.768 12.6714 21.8585C12.4551 21.9489 12.223 21.9955 11.9885 21.9955C11.7541 21.9955 11.522 21.9489 11.3057 21.8585C11.0894 21.768 10.8932 21.6355 10.7285 21.4686L9.36865 20.1086C9.03246 19.7777 8.58036 19.5911 8.10864 19.5886H6.17847C5.70546 19.5859 5.25272 19.3962 4.91919 19.0608C4.58566 18.7254 4.39843 18.2716 4.39844 17.7986V15.8786C4.39698 15.4067 4.21022 14.9542 3.87842 14.6186L2.51855 13.2486C2.18635 12.9134 2 12.4605 2 11.9886C2 11.5166 2.18635 11.0638 2.51855 10.7286L3.87842 9.35858C4.21055 9.02729 4.3976 8.57769 4.39844 8.10858V6.17859C4.39844 5.7065 4.58611 5.25374 4.91992 4.91992C5.25374 4.58611 5.70638 4.39856 6.17847 4.39856H8.10864C8.58036 4.39604 9.03246 4.2095 9.36865 3.8786L10.7285 2.51855C11.0637 2.18635 11.5166 2 11.9885 2C12.4605 2 12.9133 2.18635 13.2485 2.51855V2.51855Z" stroke="#E58411" stroke-width="2" stroke-miterlimit="10"/>
<path d="M15.9885 9.50879L10.8685 14.5088L7.98853 11.7488" stroke="#E58411" stroke-width="2" stroke-miterlimit="10"/>
</svg>
