<svg width="24" height="24" viewBox="0 0 24 24" fill="none" xmlns="http://www.w3.org/2000/svg">
<path d="M4 10.01H7V22.01H4C3.46957 22.01 2.96086 21.7993 2.58578 21.4242C2.21071 21.0492 2 20.5404 2 20.01V12.01C2 11.4796 2.21071 10.9709 2.58578 10.5958C2.96086 10.2207 3.46957 10.01 4 10.01Z" stroke="#E58411" stroke-width="2" stroke-linejoin="round"/>
<path d="M7.04004 10L9.62012 3.17004C9.74328 2.82823 9.96865 2.53256 10.2656 2.32324C10.5626 2.11393 10.9167 2.00107 11.28 2V2C11.7468 2 12.1944 2.18544 12.5244 2.5155C12.8545 2.84557 13.04 3.29323 13.04 3.76001V10H20.04C20.3469 10.0002 20.6497 10.071 20.9248 10.207C21.1999 10.3429 21.4401 10.5403 21.6267 10.7839C21.8133 11.0276 21.9412 11.3109 22.0007 11.6119C22.0603 11.913 22.0498 12.2237 21.97 12.52L20.05 20.52C19.9339 20.9427 19.682 21.3155 19.3333 21.5811C18.9845 21.8466 18.5585 21.9904 18.1201 21.9901H7.04004" stroke="#E58411" stroke-width="2" stroke-linejoin="round"/>
</svg>
