<svg width="800" height="800" viewBox="0 0 800 800" fill="none" xmlns="http://www.w3.org/2000/svg">
<path d="M476.575 393.75C464.075 389.05 464.075 371.1 463.3 358.6C460.175 314.075 475.8 246.1 457.05 217.2C443.775 200 379.7 201.575 340.65 203.925C329.7 205.5 316.425 207.825 307.05 212.525C297.675 217.225 288.3 225.025 288.3 232.05C288.3 242.2 311.75 240.65 320.325 253.925C329.7 268 329.7 298.45 329.7 323.45C329.7 352.35 325 390.65 313.3 392.2C295.325 392.975 285.175 375 275.8 361.725C257.05 335.95 238.3 303.9 224.225 272.65C217.2 256.25 213.275 238.275 203.125 231.25C187.5 220.3 159.375 219.525 132.025 220.3C107.025 221.075 71.0747 217.95 64.0497 232.8C58.5747 249.2 70.2997 264.825 76.5497 278.125C108.575 347.65 142.95 408.6 185.15 466.4C224.225 520.3 260.925 563.275 332.8 585.925C353.125 592.175 442.175 610.15 460.15 585.925C466.4 576.55 464.85 555.45 467.975 539.825C471.1 524.2 475 508.575 489.85 507.8C502.35 507.025 509.375 517.95 517.2 525.775C525.8 534.375 532.825 541.4 539.075 549.225C553.925 564.075 569.55 584.375 588.3 592.2C614.075 603.15 653.925 600.025 691.425 598.45C721.9 597.675 743.775 591.425 746.125 573.45C747.7 559.375 732.05 539.075 722.675 527.35C699.225 498.45 688.3 489.85 661.725 463.275C650 451.55 635.15 439.05 635.15 425C634.375 416.4 641.4 408.6 647.65 400C675 359.375 702.35 330.475 727.35 288.275C734.375 275.775 750.8 246.875 744.55 232.8C737.525 217.175 698.45 221.85 674.225 221.85C642.975 221.85 602.35 219.5 594.525 225.75C579.675 235.9 573.425 252.325 566.4 267.95C550.775 303.9 529.675 340.6 507.8 367.95C499.975 377.325 485.15 396.85 476.55 393.725L476.575 393.75Z" fill="white"/>
</svg>
