<svg width="800" height="800" viewBox="0 0 800 800" fill="none" xmlns="http://www.w3.org/2000/svg">
<path d="M200.467 266.871C204.276 236.747 243.426 195.805 274.496 200.348L274.446 200.298C304.684 206.044 328.62 258.087 342.117 281.488C351.68 298.467 345.47 315.67 336.55 322.929C324.517 332.628 305.7 346.01 309.648 359.447C316.667 383.333 400 466.667 440.987 490.357C456.5 499.323 467.75 475.673 477.357 463.557C484.337 454.237 501.553 448.667 518.493 457.867C543.793 472.6 567.627 489.723 589.667 509C600.673 518.2 603.257 531.797 595.63 546.167C582.197 571.477 543.343 604.853 515.14 598.07C465.88 586.227 266.667 509 202.678 285.267C199.079 274.683 199.985 270.681 200.467 266.871Z" fill="white"/>
<path fill-rule="evenodd" clip-rule="evenodd" d="M400 766.667C359.213 766.667 336.646 762.29 300 750L229.814 785.093C185.487 807.257 133.333 775.023 133.333 725.463V650C61.5513 583.067 33.333 505.89 33.333 400C33.333 197.496 197.495 33.3335 400 33.3335C602.503 33.3335 766.666 197.496 766.666 400C766.666 602.503 602.503 766.667 400 766.667ZM200 621.01L178.798 601.24C123.029 549.24 99.9997 491.103 99.9997 400C99.9997 234.315 234.314 100 400 100C565.686 100 700 234.315 700 400C700 565.687 565.686 700 400 700C367.143 700 351.733 697.033 321.198 686.793L294.949 677.99L200 725.463V621.01Z" fill="white"/>
</svg>
