<svg width="150" height="150" viewBox="0 0 150 150" fill="none" xmlns="http://www.w3.org/2000/svg">
<g clip-path="url(#clip0_146_2)">
<path d="M0.879639 78.36C0.879639 76.197 0.879639 74.0628 0.879639 71.8997C0.93732 71.4671 1.02384 71.0633 1.08152 70.6307C1.57181 67.0257 1.7737 63.3341 2.55239 59.7867C9.67602 26.793 38.0552 2.7111 71.7122 1.12487C90.0548 0.25965 106.667 5.30676 121.203 16.5834C136.459 28.4081 145.775 43.8955 149.092 62.9591C149.524 65.4106 149.784 67.8909 150.101 70.3712C150.101 73.5725 150.101 76.7449 150.101 79.9463C150.014 80.3212 149.928 80.6961 149.87 81.071C149.034 85.7721 148.572 90.5884 147.303 95.1164C137.411 130.014 104.129 152.452 67.7898 148.731C50.3701 146.972 35.3442 139.819 22.9139 127.533C11.0027 115.766 3.9079 101.49 1.62949 84.878C1.34109 82.7149 1.11036 80.5231 0.879639 78.36ZM74.3655 9.54633C72.4043 9.54633 70.3855 9.51748 68.4243 9.54633C67.7033 9.54633 66.9535 9.66169 66.2325 9.71937C51.7256 10.873 38.6608 15.8336 26.9227 24.3704C21.4718 28.3216 16.915 33.0803 14.752 39.5694C13.4253 43.5782 12.6178 47.8178 12.0698 52.0285C10.1375 66.7372 11.3776 81.2441 15.4441 95.4913C18.2705 105.528 22.712 114.815 28.8262 123.265C33.7291 129.985 40.4778 134.051 48.1494 136.733C65.1942 142.646 82.4697 142.963 99.7164 138.002C111.368 134.657 120.914 128.6 126.682 117.093C134.498 101.519 139.084 85.3394 139.228 67.862C139.286 60.9691 138.709 54.0762 137.613 47.2698C135.94 37.0026 131.037 28.7542 122.154 23.1303C107.619 13.9013 91.641 9.4598 74.3655 9.54633Z" fill="black"/>
<path d="M23.433 54.5666C23.6637 49.2311 23.6349 44.2417 24.2117 39.3387C24.875 33.5706 28.134 29.4464 33.6137 27.1969C40.8527 24.2263 48.4666 22.5824 56.1959 21.5153C64.6174 20.3328 73.0965 19.9002 81.6045 20.1886C91.9006 20.5347 102.052 21.746 111.772 25.3511C113.877 26.1298 115.896 27.0527 117.915 28.0621C123.221 30.7154 125.673 35.3876 126.538 40.9827C127.028 44.0398 127.057 47.1546 127.144 50.2405C127.663 70.8327 124.664 90.9346 118.319 110.546C117.05 114.411 115.665 118.16 114.252 121.967C114.05 122.515 113.675 123.005 113.243 123.409C109.147 127.13 104.158 129.091 98.9088 130.533C89.3626 133.128 79.6145 133.59 69.8087 132.984C62.4832 132.552 55.2442 131.456 48.3224 128.975C46.6785 128.37 45.0346 127.649 43.4484 126.87C40.2471 125.313 38.0263 122.948 36.6131 119.544C29.8068 103.365 25.4807 86.5508 24.1828 69.0157C23.7791 64.1128 23.6637 59.1522 23.433 54.5666ZM77.8552 106.48C77.8552 96.9623 77.8552 87.5602 77.8552 78.1294C80.8258 78.1294 83.5368 78.1294 86.4209 78.1294C86.4209 87.6468 86.4209 96.9911 86.4209 106.48C88.5551 106.48 90.4874 106.48 92.5639 106.48C92.5928 106.047 92.6216 105.701 92.6216 105.326C92.6216 90.0117 92.6216 74.7262 92.6216 59.4407C92.6216 58.8638 92.4774 58.2582 92.189 57.7102C90.5739 54.3359 88.8723 50.9904 87.2284 47.6448C86.8823 46.8661 86.4209 46.6066 85.5556 46.6354C81.6333 46.6931 77.711 46.6643 73.8175 46.6643C72.1448 46.6643 72.1448 46.6643 72.1448 48.337C72.1448 67.1988 72.1448 86.0605 72.1448 104.98C72.1448 105.499 72.1448 105.989 72.1448 106.566C74.0194 106.48 75.7787 106.48 77.8552 106.48ZM55.7345 46.895C49.7645 46.895 43.8233 46.895 37.9687 46.895C37.9687 66.8815 37.9687 86.7527 37.9687 106.682C40.0452 106.682 42.0063 106.682 44.1117 106.682C44.1117 97.1353 44.1117 87.7045 44.1117 78.0428C47.2842 78.0428 50.3124 78.0428 53.283 78.0428C53.283 75.7356 53.283 73.6014 53.283 71.323C50.1682 71.323 47.1688 71.323 44.1694 71.323C44.1694 65.353 44.1694 59.4695 44.1694 53.4995C48.0629 53.4995 51.841 53.4995 55.7345 53.4995C55.7345 51.1922 55.7345 49.0869 55.7345 46.895ZM106.552 53.586C108.715 53.586 110.705 53.586 112.781 53.586C112.781 51.2499 112.781 49.058 112.781 46.895C106.465 46.895 100.264 46.895 94.0636 46.895C94.0636 49.1734 94.0636 51.3076 94.0636 53.586C96.1113 53.586 98.0148 53.586 100.293 53.586C100.293 71.2941 100.293 88.8581 100.293 106.48C102.572 106.48 104.475 106.48 106.58 106.48C106.552 88.9158 106.552 71.323 106.552 53.586ZM64.7327 106.682C64.7327 86.6373 64.7327 66.7085 64.7327 46.7219C62.6274 46.7219 60.6662 46.7219 58.705 46.7219C58.705 66.7662 58.705 86.695 58.705 106.682C60.7239 106.682 62.685 106.682 64.7327 106.682Z" fill="black"/>
<path d="M86.3632 69.9385C83.4503 69.9385 80.7392 69.9385 77.9994 69.9385C77.9994 64.4011 77.9994 58.9214 77.9994 53.2975C79.5856 53.2975 81.143 53.2687 82.7292 53.3263C82.9888 53.3263 83.3349 53.7589 83.4503 54.0473C84.3732 56.2392 85.2672 58.4023 86.1613 60.5942C86.2478 60.7961 86.3343 61.0268 86.3343 61.2287C86.3632 64.0839 86.3632 66.9968 86.3632 69.9385Z" fill="black"/>
</g>
<defs>
<clipPath id="clip0_146_2">
<rect width="150" height="150" fill="white"/>
</clipPath>
</defs>
</svg>
