<svg width="150" height="150" viewBox="0 0 150 150" fill="none" xmlns="http://www.w3.org/2000/svg">
<path d="M75.2308 46.9614C34.1539 46.9614 1.15387 59.3076 1.15387 74.7691C1.15387 90.1153 34.3846 102.577 75.2308 102.577C116.077 102.577 149.308 90.1153 149.308 74.7691C149.423 59.5384 116.077 46.9614 75.2308 46.9614ZM75.2308 100.154C36 100.154 4.26925 88.846 4.26925 74.7691C4.26925 60.8076 36.1154 49.3845 75.2308 49.3845C114.462 49.3845 146.192 60.6922 146.192 74.7691C146.308 88.846 114.462 100.154 75.2308 100.154ZM104.423 80.423C104.423 80.5383 104.423 80.6537 104.423 80.6537C104.423 80.7691 104.654 80.8845 104.769 80.9999C104.769 80.9999 104.885 81.1153 104.769 81.2307C104.308 82.2691 103.846 82.846 103.269 83.6537C102.692 84.4614 102.115 85.0383 101.423 85.6153C100.385 86.5383 98.7693 87.4614 97.5 86.8845C96.9231 86.5384 96.6923 85.846 96.6923 85.1537C96.6923 83.423 97.5 81.5768 99 79.7307C100.731 77.5383 102.808 76.3845 104.077 77.0768C105.462 77.6537 105.115 79.2691 104.423 80.423ZM67.7308 68.8845C67.6154 68.1922 67.8462 67.3845 68.5385 66.8076C68.8846 66.4614 69.3462 66.4614 69.6923 66.6922C70.0385 66.923 69.8077 67.6153 69.5769 68.1922C69.2308 68.7691 68.6539 69.2307 68.0769 69.2307C67.8462 69.1153 67.7308 69.1153 67.7308 68.8845ZM75.2308 51.5768C37.3846 51.5768 6.69233 62.0768 6.69233 74.8845C6.69233 87.5768 37.3846 98.0768 75.2308 98.0768C113.077 98.0768 143.769 87.5768 143.769 74.7691C143.769 61.9614 113.077 51.5768 75.2308 51.5768ZM40.0385 90.1153C36 90.1153 32.4231 87.6922 31.9616 83.3076C31.7308 80.8845 32.4231 78.8076 33.8077 76.9614C34.9616 75.346 37.0385 74.0768 38.7693 73.7307C39.3462 73.6153 40.0385 73.7307 40.3846 74.0768C40.8462 74.6537 40.7308 75.2307 40.2693 75.5768C39 76.2691 37.3846 77.423 36.5769 78.923C35.8846 80.1922 35.7693 81.8076 36.8077 83.1922C38.4231 85.6153 42.9231 85.7307 47.1923 81.8076C48.2308 80.8845 49.1539 79.9614 50.0769 78.8076C51.9231 76.7307 52.5 75.923 55.0385 72.4614V72.346C55.0385 72.346 55.0385 72.346 54.9231 72.2307C53.3077 72.2307 51.8077 72.8076 50.4231 73.846C50.0769 74.1922 49.5 74.0768 49.1539 73.7307C48.9231 73.2691 49.0385 72.6922 49.5 72.4614C51.6923 70.846 54.2308 70.6153 56.6539 70.1537C56.6539 70.1537 56.8846 70.1537 57 69.923C58.0385 68.6537 58.8462 67.3845 59.8846 66.1153C61.0385 64.7307 62.4231 63.5768 63.4616 62.5383C64.9616 61.2691 66 60.8076 66.9231 60.2307C67.1539 60.1153 66.9231 59.8845 66.8077 59.8845C61.2693 58.846 55.5 57.4614 50.0769 59.5383C46.2693 60.923 44.6539 63.923 45.4616 65.9999C46.0385 67.3845 47.8846 67.6153 49.7308 66.8076C51.2308 66.1153 52.5 64.9614 53.5385 63.4614C54.1154 62.6537 55.1539 63.2307 54.5769 64.6153C52.9616 68.423 49.8462 71.423 46.1539 71.5383C42.9231 71.6537 40.9616 69.346 40.9616 66.4614C40.9616 60.8076 47.3077 56.9999 54 56.423C62.0769 55.7307 69.6923 57.923 77.6539 58.846C83.7693 59.5383 89.6539 59.6537 95.7693 58.1537C96.4616 58.0383 97.0385 58.4999 96.9231 59.1922C96.8077 60.2307 96 61.2691 94.0385 62.423C91.7308 63.6922 89.3077 64.0383 86.7693 64.0383C80.6539 64.0383 75 61.7307 69.1154 60.4614C69.1154 60.6922 69.2308 61.0383 69 61.1537C65.7693 63.5768 62.7693 65.9999 60.8077 69.346C60.6923 69.4614 60.8077 69.4614 60.9231 69.4614C62.6539 69.346 64.1539 69.346 65.7693 69.2307C66 69.2307 66 69.1153 66 68.8845C65.8846 67.7307 66.2308 66.346 67.2693 65.423C68.3077 64.4999 69.6923 64.3845 70.5 65.0768C71.5385 65.8845 71.4231 67.2691 70.8462 68.3076C70.2693 69.346 69.3462 69.923 68.5385 70.2691C68.5385 70.2691 68.3077 70.2691 68.4231 70.4999C68.4231 70.7307 69.6923 71.423 69.8077 71.6537C69.9231 71.7691 69.8077 72.1153 69.6923 72.2307C69.5769 72.346 69.3462 72.4614 69.1154 72.4614C68.8846 72.4614 68.7693 72.346 68.5385 72.2307C67.9616 71.8845 67.2693 71.423 66.9231 70.846C66.8077 70.6153 66.6923 70.6153 66.3462 70.6153C64.6154 70.7307 61.9616 70.9614 60.1154 71.1922C59.6539 71.1922 59.6539 71.3076 59.5385 71.5383C56.6539 76.2691 53.5385 81.4614 50.0769 84.923C46.3846 89.0768 43.2693 90.1153 40.0385 90.1153ZM118.846 66.8076C118.269 67.7307 107.423 84.346 106.731 85.9614C106.5 86.5383 106.5 86.8845 106.731 87.2307C107.308 88.0383 108.577 87.5768 109.385 86.9999C111.692 85.3845 113.308 83.423 115.154 81.6922C115.269 81.5768 115.385 81.5768 115.5 81.6922C115.731 81.923 116.192 82.2691 116.423 82.4999C116.538 82.6153 116.538 82.7307 116.423 82.846C114.692 85.0384 112.731 86.9999 110.885 88.4999C108 90.6922 105.115 91.2691 103.615 89.8845C103.038 89.3076 102.808 88.6153 102.808 87.923C102.808 87.5768 102.577 87.5768 102.462 87.6922C100.731 89.423 97.7308 91.2691 95.0769 89.8845C92.7693 88.7307 92.3077 86.0768 92.7693 83.7691C92.7693 83.7691 92.7693 83.423 92.4231 83.5383C91.9616 83.8845 91.3846 84.2307 90.5769 84.5768C89.6539 84.923 89.1923 85.0383 88.2693 85.0383C87.1154 85.0383 86.1923 84.5768 85.5 83.423C85.1539 82.846 84.9231 81.923 84.9231 81.2307C84.9231 81.1153 84.8077 80.9999 84.6923 81.2307C82.8462 83.9999 81.1154 86.7691 79.2693 89.6537C79.1539 89.7691 79.0385 89.8845 78.9231 89.8845C77.7693 89.8845 76.5 89.8845 75.3462 89.8845C75.1154 89.8845 75 89.7691 75.1154 89.5383C75.8077 88.2691 79.2693 83.1922 81.6923 78.8076C82.3846 77.6537 82.2693 76.9614 81.8077 76.7307C81.3462 76.3845 80.3077 76.846 79.3846 77.5383C77.0769 79.2691 75.1154 82.0383 74.0769 83.3076C73.5 83.9999 72.9231 85.1537 71.4231 86.7691C69 89.423 65.7693 90.923 62.7693 89.8845C61.0385 89.3076 59.8846 87.923 59.4231 86.3076C59.3077 85.9614 59.1923 85.846 58.9616 86.0768C58.5 86.6537 57.4616 87.5768 56.5385 88.1537C56.4231 88.2691 56.1923 88.3845 55.9616 88.2691C55.7308 88.1537 55.1539 87.346 55.0385 86.9999C54.9231 86.7691 55.0385 86.6537 55.1539 86.5383C56.4231 85.4999 57 84.8076 57.5769 84.2307C57.9231 83.7691 58.2693 83.1922 58.6154 82.2691C59.3077 80.423 61.0385 76.9614 64.3846 75.1153C65.6539 74.423 66.9231 73.9614 68.4231 73.7307C69 73.6153 69.5769 73.7307 69.6923 74.1922C69.8077 74.423 69.9231 74.8845 70.0385 75.1153C70.1539 75.346 70.0385 75.4614 69.8077 75.5768C67.8462 76.3845 65.8846 77.5384 64.5 79.3845C62.8846 81.4614 62.5385 83.9999 63.5769 85.3845C64.3846 86.423 65.5385 86.6537 66.8077 86.1922C68.6539 85.6153 70.1539 83.9999 70.9616 82.0383C71.7693 79.9614 72 77.6537 71.3077 75.4614C71.1923 75.1153 71.3077 74.7691 71.5385 74.6537C72 74.3076 72.6923 73.9614 72.8077 73.846C73.2693 73.6153 73.7308 73.7307 73.9616 74.0768C74.6539 74.9999 75 76.3845 75 77.8845C75 78.2307 75.1154 78.2307 75.3462 77.9999C76.5 76.7307 77.6539 75.4614 78.8077 74.423C79.9616 73.4999 81.4616 72.8076 82.7308 72.8076C84.4616 72.8076 85.3846 74.0768 85.2693 76.1537C85.2693 76.3845 85.5 76.3845 85.6154 76.2691C86.1923 75.4614 86.5385 75.1153 87.1154 74.6537C88.3846 73.6153 89.5385 73.1537 90.9231 73.2691C92.5385 73.3845 93.8077 74.8845 93.5769 76.4999C93.4616 77.5384 92.7693 78.5768 91.8462 79.0383C91.0385 79.4999 90 79.3845 89.3077 78.8076C88.7308 78.346 88.6154 77.5383 88.7308 76.846C88.7308 76.7307 88.6154 76.4999 88.3846 76.7307C86.7693 78.346 86.6539 80.423 87.6923 81.4614C88.8462 82.4999 90.4616 81.8076 91.7308 80.9999C94.0385 79.4999 95.7692 77.5384 97.7308 75.923C99.1154 74.8845 100.615 73.9614 102.346 73.7307C103.269 73.6153 104.192 73.6153 105.115 74.0768C106.385 74.5383 107.077 75.5768 107.192 76.4999C107.192 76.7307 107.423 76.846 107.538 76.6153C108.462 75.1153 113.769 67.2691 114.231 66.4614C114.346 66.2307 114.462 66.1153 114.808 66.1153C115.962 66.1153 117.462 66.1153 118.5 66.1153C118.846 66.5768 118.846 66.6922 118.846 66.8076Z" fill="black"/>
</svg>
