<svg width="150" height="150" viewBox="0 0 150 150" fill="none" xmlns="http://www.w3.org/2000/svg">
<g clip-path="url(#clip0_146_8)">
<path d="M109.641 24.2151C106.278 39.6859 104.933 46.7487 101.906 57.8474C98.8789 68.946 97.1973 78.3631 93.4978 83.4079C90.8072 87.1075 86.435 89.4617 81.7265 89.798C77.3543 90.1344 72.6457 90.1344 68.2735 89.798C63.565 89.4617 59.1928 87.1075 56.5022 83.4079C52.8027 78.6994 50.7848 68.6097 48.0942 57.8474C45.4036 47.085 43.722 39.6859 40.3587 24.2151L35.3139 24.5514C33.296 24.5514 31.6144 24.8877 29.9327 25.2241C29.9327 25.2241 31.9507 56.8384 32.9596 70.2913C33.9686 84.4169 35.6502 107.959 36.9955 126.121C36.9955 126.121 40.0224 126.457 44.7309 126.794C49.4395 127.13 52.13 127.13 52.13 127.13C54.148 119.058 56.8386 108.296 59.5292 103.587C61.2108 100.897 64.2377 99.2151 67.6009 99.2151C69.9552 98.8788 72.3094 98.8788 75 98.8788C77.3543 98.8788 79.7085 98.8788 82.3991 99.2151C85.7623 99.2151 88.7892 100.897 90.4709 103.587C93.4978 108.296 95.852 119.058 97.87 127.13C97.87 127.13 100.224 127.13 105.269 126.794C110.314 126.457 113.004 126.121 113.004 126.121C114.686 108.296 116.368 84.4169 117.04 70.2913C118.049 56.8384 120.067 25.2241 120.067 25.2241C118.386 24.8877 116.704 24.8877 114.686 24.5514L109.641 24.2151Z" fill="black"/>
<path d="M149.327 43.0493C147.309 22.8699 133.857 18.834 122.085 16.8161C114.35 15.8071 106.614 15.1345 98.8789 14.7981C92.8251 14.4618 79.0359 14.1255 75 14.1255C70.9641 14.1255 56.8386 14.4618 51.1211 14.7981C43.0493 14.7981 35.3139 15.4708 27.5785 16.8161C15.8072 18.834 2.35428 23.2062 0.336342 43.0493C-0.336304 49.7757 -0.336304 56.5022 -0.336304 63.2286C-0.336304 72.3093 0.336342 81.3901 1.68163 90.4708C2.35428 98.2062 4.03589 105.605 6.05383 113.341C9.08074 122.085 11.7713 124.776 14.7982 127.13C20.1794 130.83 25.8969 132.847 32.287 133.856C60.5381 136.883 88.7893 136.883 117.04 133.856C123.431 132.847 129.148 130.83 134.529 127.13C137.892 124.439 140.583 122.085 143.274 113.341C145.291 105.942 146.973 98.2062 147.646 90.4708C148.655 81.3901 149.327 72.3093 149.664 63.2286C150 56.5022 149.664 49.7757 149.327 43.0493ZM141.928 76.6815C141.592 87.7802 139.91 98.5425 137.22 109.305C136.211 114.35 133.52 118.722 129.821 122.421C124.776 126.457 118.722 128.812 112.668 129.148C87.444 131.838 62.2198 131.838 36.9955 129.148C30.6054 128.812 24.8879 126.457 19.8431 122.421C16.1435 118.722 13.7893 114.35 12.444 109.305C9.75338 98.5425 8.40809 87.7802 7.73544 76.6815C7.0628 65.5829 7.0628 54.1479 8.07177 43.0493C10.0897 30.269 16.1435 24.2152 29.5964 21.8609C36.9955 20.5156 44.731 19.843 52.1301 19.5067C58.5202 19.1703 68.9462 18.834 75 18.834C81.0538 18.834 91.4798 18.834 97.87 19.5067C105.269 19.843 113.004 20.5156 120.404 21.8609C133.857 24.2152 139.91 30.6053 141.592 43.0493C142.265 54.1479 142.601 65.5829 141.928 76.6815Z" fill="black"/>
</g>
<defs>
<clipPath id="clip0_146_8">
<rect width="150" height="150" fill="white"/>
</clipPath>
</defs>
</svg>
