<svg width="150" height="150" viewBox="0 0 150 150" fill="none" xmlns="http://www.w3.org/2000/svg">
<g clip-path="url(#clip0_145_24)">
<path d="M109.875 8.4375C99.375 3 87.5625 0 75 0C62.4375 0 50.625 3 40.125 8.4375C16.3125 21 0 46.125 0 75C0 103.875 16.3125 129 40.3125 141.562C50.625 146.812 62.4375 150 75 150C87.5625 150 99.1875 146.812 109.688 141.375C133.688 129 150 103.875 150 75C150 46.125 133.688 21 109.875 8.4375ZM7.5 75C7.5 50.4375 20.625 29.0625 40.3125 17.0625C49.875 11.25 60.9375 7.875 73.125 7.5L64.6875 68.8125L40.3125 87.75L15.5625 107.062C10.5 97.5 7.5 86.625 7.5 75ZM109.875 132.75C99.5625 138.938 87.75 142.5 75 142.5C62.25 142.5 50.25 138.938 40.125 132.75C30.9375 127.313 23.4375 119.812 17.8125 110.812L40.125 101.625L75 87.375L109.875 101.438L132.375 110.625C126.75 119.812 118.875 127.313 109.875 132.75ZM109.875 87.75L85.6875 69L77.0625 7.5C88.875 7.875 100.125 11.25 109.688 17.0625C129.375 28.875 142.5 50.4375 142.5 75C142.5 86.625 139.688 97.5 134.438 107.062L109.875 87.75Z" fill="black"/>
</g>
<defs>
<clipPath id="clip0_145_24">
<rect width="150" height="150" fill="white"/>
</clipPath>
</defs>
</svg>
