<svg width="150" height="150" viewBox="0 0 150 150" fill="none" xmlns="http://www.w3.org/2000/svg">
<g clip-path="url(#clip0_145_33)">
<path fill-rule="evenodd" clip-rule="evenodd" d="M100.606 79.3901C90.6372 96.5334 63.694 136.311 58.1043 143.924C57.7462 144.404 57.4539 144.788 57.2328 145.068C56.4034 146.081 55.6872 146.668 55.0816 146.645C55.0816 146.645 65.0421 132.058 72.8252 116.448C64.0732 103.542 56.5456 91.601 49.3181 79.3185C48.0226 77.1324 47.4039 76.0478 47.4118 74.9695V74.9674V74.9631C47.4144 73.8954 48.0595 72.8171 49.3365 70.6183C59.7973 52.622 85.4107 14.0243 92.8304 4.83552C93.6941 3.76564 94.1548 3.36549 94.7736 3.36549C94.7946 3.36549 94.8104 3.36549 94.8315 3.36549C94.8315 3.36549 84.4892 18.8471 77.109 33.5643C85.861 46.466 93.4176 58.4369 100.65 70.7173C101.93 72.8992 102.557 73.948 102.557 75.0158C102.557 76.0857 101.885 77.1871 100.606 79.3901ZM148.684 70.9616C145.961 66.4167 137.486 53.0748 130.303 42.6583C120.455 28.3792 102.873 4.87132 100.877 2.72735C98.9047 0.610758 97.7988 0.515985 95.9742 0.364349L95.7056 0.339076C93.0463 0.107409 81.7799 0 75 0C69.1943 0 56.8589 0.120045 53.9863 0.349606C51.2796 0.564424 50.5477 1.22783 49.0047 2.84108C46.8826 5.05455 29.0074 29.23 19.6972 42.6583C12.9621 52.3672 2.30121 69.1546 1.30858 70.9616C0.416009 72.5917 0 73.8764 0 74.9989C0 76.1973 0.416009 77.4778 1.31385 79.0342C3.54924 82.9114 10.2896 93.6502 19.6972 107.338C29.5103 121.617 47.2407 145.215 49.1206 147.268C51.1085 149.44 52.4065 149.528 54.2022 149.659C56.93 149.853 68.7019 150 75 150C81.8009 150 94.1022 149.783 95.7978 149.659C97.4776 149.537 98.9284 149.431 100.877 147.268C102.665 145.287 121.735 119.862 130.303 107.338C138.515 95.3372 147.633 80.9191 148.684 79.0342C149.842 76.966 150 75.873 150 74.9968C150 74.3103 149.829 72.8697 148.684 70.9616Z" fill="#010000"/>
</g>
<defs>
<clipPath id="clip0_145_33">
<rect width="150" height="150" fill="white"/>
</clipPath>
</defs>
</svg>
