<svg width="150" height="150" viewBox="0 0 150 150" fill="none" xmlns="http://www.w3.org/2000/svg">
<g clip-path="url(#clip0_145_10)">
<path d="M67.7708 80.6492H85.9648V74.5845H83.9554C83.9647 75.1392 83.858 75.6898 83.6421 76.2009C83.4263 76.712 83.106 77.1723 82.7019 77.5524C82.2977 77.9325 81.8186 78.2239 81.2952 78.408C80.7718 78.5921 80.2157 78.6649 79.6626 78.6215H76.8312V69.5245H79.8819V67.5151H67.7342V69.5245H70.7848V78.585H67.7251L67.7708 80.6492Z" fill="#010101"/>
<path d="M94.6964 80.6581H101.775L107.785 69.5244H110.79V67.5059H101.738V69.5244H104.351L99.9756 77.6167L95.5458 69.5244H98.7517V67.5059H85.5812V69.5244H88.5861L94.6964 80.6581Z" fill="#010101"/>
<path d="M31.5473 67.5424H18.3767V69.5244H21.3816L27.5102 80.6581H34.5887L40.6077 69.5244H43.6218V67.5059H34.5613V69.5244H37.1826L32.8077 77.6167L28.3688 69.5244H31.5564L31.5473 67.5424Z" fill="#010101"/>
<path d="M45.3754 74.146C45.3754 78.0095 48.4899 81.0784 54.7281 81.0784C60.9663 81.0784 64.0443 78.0095 64.0443 74.146C64.0443 70.2826 60.7836 67.2959 54.6916 67.2959C48.5995 67.2959 45.3754 70.3008 45.3754 74.146ZM57.9431 74.146C57.9431 76.5299 56.9202 79.0142 54.6276 78.9686C52.3351 78.9229 51.4309 76.466 51.4674 74.0273C51.504 71.5887 52.7279 69.2962 54.8012 69.3327C56.8745 69.3692 57.9888 71.6161 57.9522 74.146H57.9431Z" fill="#010101"/>
<path d="M112.543 74.146C112.543 78.0095 115.649 81.0784 121.896 81.0784C128.143 81.0784 131.221 78.0095 131.221 74.146C131.221 70.2826 127.952 67.2959 121.86 67.2959C115.767 67.2959 112.543 70.3008 112.543 74.146ZM121.969 69.3692C124.052 69.3692 125.148 71.6526 125.102 74.1734C125.102 76.5573 124.079 79.0416 121.796 78.996C119.512 78.9503 118.59 76.5025 118.635 74.0547C118.681 71.6069 119.887 69.287 121.969 69.3235V69.3692Z" fill="#010101"/>
<path d="M136.729 32.4058L129.121 40.014C137.745 53.3592 141.126 69.4243 138.61 85.1136C136.095 100.803 127.862 115.006 115.497 124.986C103.133 134.966 87.5124 140.017 71.6457 139.165C55.7789 138.313 40.7888 131.619 29.5639 120.373C18.3391 109.126 11.6738 94.1235 10.8525 78.2551C10.0312 62.3868 15.112 46.7759 25.1158 34.4307C35.1196 22.0856 49.3385 13.8797 65.0326 11.3944C80.7266 8.90915 96.7852 12.3203 110.114 20.9706L117.722 13.3624C102.333 2.69758 83.5117 -1.82593 64.957 0.680896C46.4023 3.18772 29.4561 12.5436 17.4489 26.9098C5.4417 41.276 -0.758184 59.6135 0.0676888 78.3186C0.893562 97.0236 8.68548 114.743 21.9121 127.995C35.1387 141.247 52.8435 149.073 71.547 149.935C90.2504 150.797 108.6 144.632 122.989 132.653C137.378 120.673 146.767 103.745 149.309 85.1951C151.852 66.6453 147.364 47.8153 136.729 32.4058Z" fill="#010101"/>
<path d="M112.763 2.99585V5.08744C117.293 7.54551 121.575 10.436 125.55 13.7186L114.845 24.4231C118.878 27.5825 122.515 31.2165 125.677 35.2463L136.382 24.5418C139.655 28.5124 142.554 32.7777 145.04 37.2831H147.095V2.99585H112.763Z" fill="#010101"/>
</g>
<defs>
<clipPath id="clip0_145_10">
<rect width="150" height="150" fill="white"/>
</clipPath>
</defs>
</svg>
